# xmcd
#
# Track frame offsets:
# 150
# 18945
# 35520
# 51185
# 65753
# 83095
# 104765
# 117238
# 134200
# 155001
# 173965
# 190324
# 209845
#
# Disc length: 3146 seconds
#
#
# Revision: 1
# Processed by: cddbd v1.5.2PL0 Copyright (c) Steve Scherf et al.
# Submitted via: FreeRIP 2.951 
#
DISCID=c90c480d
DTITLE=Bushwackers - No Nuts 'Til Monday
DYEAR=2000
DGENRE=Pop-Folk
TTITLE0=This is the Place For Me
TTITLE1=The Gift
TTITLE2=The Overlanders
TTITLE3=I'ts a Good Day
TTITLE4=They Don't Make 'Em Like That Anymore
TTITLE5=Henry's Men
TTITLE6=Heroes
TTITLE7=Blue Mountain
TTITLE8=Go the Distance
TTITLE9=Jim Jones
TTITLE10=Raise Your Hand
TTITLE11=Gypsy Spirit
TTITLE12=The Voyage
EXTD=Dobe Newton - largerphone and Vocals\nRoger Corbet - Bass Guitar and Vocals\nMark Oats - Fiddle, Banjo and Vocals\nTim Gaze - Guitars and Vocals\nPeter Drummond - Drums (of course!]\nPamela Drysdale - Accordion and Vocals
EXTT0=
EXTT1=
EXTT2=
EXTT3=
EXTT4=
EXTT5=
EXTT6=
EXTT7=
EXTT8=
EXTT9=
EXTT10=
EXTT11=
EXTT12=
PLAYORDER=
